 <svg version="1.0" xmlns="http://www.w3.org/2000/svg" width="700.000000pt" height="278.000000pt" viewBox="0 0 700.000000 278.000000" preserveAspectRatio="xMidYMid meet">
<metadata>
Created by potrace 1.12, written by Peter Selinger 2001-2015
</metadata>
<g transform="translate(0.000000,278.000000) scale(0.100000,-0.100000)" fill="#000000" stroke="none">
<path d="M160 1741 l0 -781 26 -6 c15 -4 39 -3 53 2 l26 9 5 675 5 675 224
-295 c124 -162 230 -298 235 -303 6 -4 29 -6 51 -5 79 6 72 18 -238 428 l-284
375 -51 3 -52 3 0 -780z"></path>
<path d="M1086 2228 c-126 -161 -232 -304 -234 -317 -6 -28 11 -41 55 -41 37
0 32 -6 268 294 l125 159 0 -671 c0 -596 2 -672 16 -686 19 -19 64 -21 87 -3
16 11 17 67 15 782 l-3 770 -50 3 -50 2 -229 -292z"></path>
<path d="M2598 2503 c-9 -10 -84 -193 -168 -408 -84 -214 -215 -547 -292 -739
-84 -212 -138 -359 -136 -375 3 -24 7 -26 52 -26 l49 0 123 310 c483 1219 483
1219 473 1237 -13 24 -80 25 -101 1z"></path>
<path d="M3882 2508 c-9 -9 -12 -196 -12 -780 l0 -768 27 -11 c30 -11 74 -4
85 14 4 7 8 354 8 773 0 578 -3 763 -12 772 -7 7 -28 12 -48 12 -20 0 -41 -5
-48 -12z"></path>
<path d="M4074 2506 c-3 -8 -4 -23 -2 -33 3 -16 20 -19 173 -24 135 -5 184
-11 240 -29 105 -33 200 -93 285 -179 136 -139 199 -283 207 -476 6 -137 -12
-229 -66 -340 -76 -159 -175 -260 -326 -336 -106 -52 -190 -69 -356 -69 -139
0 -159 -5 -159 -42 0 -35 36 -41 209 -35 196 7 263 21 387 83 291 143 465 470
424 797 -24 195 -99 349 -235 483 -69 67 -101 90 -186 132 -137 67 -212 82
-424 82 -135 0 -167 -3 -171 -14z"></path>
<path d="M2692 2288 c-7 -7 -12 -19 -12 -27 0 -15 126 -342 352 -911 178 -449
152 -400 208 -400 82 0 100 -63 -211 722 -105 266 -200 508 -211 538 -11 30
-27 63 -36 73 -17 20 -72 23 -90 5z"></path>
<path d="M1636 1069 c-33 -26 -37 -86 -6 -114 28 -26 103 -32 135 -11 50 33
53 110 4 136 -32 18 -104 12 -133 -11z"></path>
<path d="M3514 1067 c-35 -30 -37 -79 -5 -110 29 -30 119 -31 150 -3 32 29 29
88 -5 115 -38 30 -104 28 -140 -2z"></path>
<path d="M5314 1067 c-38 -33 -37 -81 1 -115 24 -21 36 -23 79 -19 59 5 86 32
86 82 0 70 -107 103 -166 52z"></path>
<path d="M441 589 c-39 -48 -71 -93 -71 -99 0 -26 31 -5 76 52 l49 63 5 -195
c4 -175 7 -195 23 -198 16 -3 17 13 17 226 0 186 -3 231 -14 235 -8 3 -40 -27
-85 -84z"></path>
<path d="M170 439 c0 -180 3 -230 13 -227 9 4 13 56 17 199 l5 193 65 -87 c58
-79 90 -106 90 -75 0 18 -163 228 -177 228 -10 0 -13 -53 -13 -231z"></path>
<path d="M725 651 c-109 -50 -159 -190 -110 -309 43 -106 184 -162 293 -116
185 77 190 341 7 425 -52 24 -138 24 -190 0z m147 -11 c53 -15 97 -56 124
-115 27 -57 29 -77 12 -143 -8 -31 -25 -59 -53 -88 -90 -90 -221 -75 -296 34
-20 30 -24 48 -24 112 0 67 3 82 27 116 28 40 69 70 116 84 38 11 52 11 94 0z"></path>
<path d="M1110 440 l0 -230 93 0 c68 0 102 5 132 19 116 54 166 191 111 306
-48 101 -109 135 -246 135 l-90 0 0 -230z m181 198 c127 -43 182 -188 115
-302 -42 -72 -93 -100 -188 -105 l-78 -3 0 211 0 211 59 0 c32 0 73 -5 92 -12z"></path>
<path d="M1565 636 l-35 -34 2 -198 3 -199 145 -3 c150 -3 195 2 185 18 -4 6
-70 10 -156 10 l-149 0 0 100 0 100 125 0 c164 0 166 18 3 22 l-123 3 -3 62
c-3 56 0 65 27 95 l29 33 121 3 c67 2 121 8 121 13 0 5 -58 9 -129 9 l-130 0
-36 -34z"></path>
<path d="M1920 440 c0 -196 2 -230 15 -230 12 0 15 33 17 218 l3 217 113 0
114 0 29 -33 c35 -39 38 -81 7 -117 -27 -31 -78 -44 -171 -45 -44 0 -67 -4
-65 -11 6 -17 251 -229 265 -229 28 0 9 22 -99 117 l-112 98 80 5 c85 6 114
17 138 52 20 28 20 90 1 127 -25 49 -68 61 -209 61 l-126 0 0 -230z"></path>
<path d="M2330 440 c0 -198 2 -230 15 -230 13 0 15 28 15 195 0 107 3 195 8
195 4 -1 74 -88 156 -195 81 -107 155 -195 162 -195 12 0 14 41 14 230 0 198
-2 230 -15 230 -13 0 -15 -29 -15 -201 l0 -202 -156 202 c-85 110 -162 201
-170 201 -12 0 -14 -37 -14 -230z"></path>
<path d="M3167 452 c-48 -120 -87 -224 -87 -230 0 -7 6 -12 14 -12 10 0 43 72
95 205 94 238 99 255 79 255 -9 0 -45 -76 -101 -218z"></path>
<path d="M3520 440 c0 -198 2 -230 15 -230 13 0 15 31 15 220 l0 220 101 0
c135 0 178 -25 179 -103 0 -70 -55 -97 -196 -97 -30 0 -54 -4 -54 -9 0 -15
247 -231 264 -231 9 0 16 4 16 8 0 4 -51 53 -112 107 l-113 100 75 5 c41 3 84
10 95 17 82 47 83 154 2 203 -27 17 -51 20 -159 20 l-128 0 0 -230z"></path>
<path d="M3900 660 c0 -5 39 -11 86 -12 l85 -3 2 -215 c2 -184 4 -215 17 -215
13 0 15 32 18 218 l2 217 85 0 c50 0 85 4 85 10 0 6 -70 10 -190 10 -115 0
-190 -4 -190 -10z"></path>
<path d="M4340 440 c0 -198 2 -230 15 -230 13 0 15 32 15 230 0 198 -2 230
-15 230 -13 0 -15 -32 -15 -230z"></path>
<path d="M4493 650 c-68 -41 -85 -136 -34 -188 27 -27 37 -30 117 -35 80 -5
91 -8 111 -32 27 -30 29 -64 8 -105 -24 -47 -61 -60 -170 -60 -57 0 -95 -4
-95 -10 0 -6 45 -10 116 -10 l116 0 39 39 c35 35 39 44 39 88 0 41 -5 55 -27
77 -30 30 -42 34 -137 39 -60 3 -72 6 -92 31 -28 32 -30 67 -7 107 26 43 69
59 162 59 47 0 81 4 81 10 0 6 -39 10 -97 10 -80 0 -104 -4 -130 -20z"></path>
<path d="M4780 660 c0 -6 37 -10 90 -10 l90 0 0 -220 c0 -189 2 -220 15 -220
13 0 15 31 15 220 l0 220 85 0 c50 0 85 4 85 10 0 6 -70 10 -190 10 -120 0
-190 -4 -190 -10z"></path>
<path d="M5540 440 c0 -198 2 -230 15 -230 13 0 15 32 15 230 0 198 -2 230
-15 230 -13 0 -15 -32 -15 -230z"></path>
<path d="M5600 660 c0 -5 19 -10 43 -10 97 0 167 -43 206 -125 64 -136 -37
-295 -188 -295 -27 0 -53 -5 -57 -11 -5 -8 17 -10 74 -8 70 4 86 8 123 34 144
101 128 324 -29 404 -44 22 -172 31 -172 11z"></path>
<path d="M6007 447 c-48 -122 -87 -225 -87 -229 0 -5 6 -8 14 -8 15 0 199 444
188 454 -18 18 -35 -15 -115 -217z"></path>
<path d="M6452 649 c-81 -40 -122 -113 -122 -214 1 -177 197 -282 349 -188
118 74 137 269 35 365 -32 30 -92 58 -124 58 -30 0 -24 -18 9 -25 47 -10 107
-59 130 -107 73 -152 -54 -330 -212 -296 -86 18 -157 108 -157 199 0 87 72
183 153 203 15 3 27 11 27 16 0 17 -43 11 -88 -11z"></path>
<path d="M3280 598 c0 -7 32 -96 72 -197 64 -164 87 -205 104 -188 8 8 -150
390 -163 395 -7 2 -13 -2 -13 -10z"></path>
<path d="M6120 600 c0 -5 34 -95 76 -200 48 -120 81 -190 90 -190 8 0 14 4 14
9 0 5 -34 95 -76 200 -48 122 -81 191 -90 191 -8 0 -14 -4 -14 -10z"></path>
</g>
</svg>