 <svg version="1.0" xmlns="http://www.w3.org/2000/svg" width="700.000000pt" height="1197.000000pt" viewBox="0 0 700.000000 1197.000000" preserveAspectRatio="xMidYMid meet">
<metadata>
Created by potrace 1.12, written by Peter Selinger 2001-2015
</metadata>
<g transform="translate(0.000000,1197.000000) scale(0.100000,-0.100000)" fill="#000000" stroke="none">
<path d="M0 10200 c0 -1585 2 -1770 15 -1770 9 0 24 -19 34 -43 28 -64 59 -93
126 -115 107 -36 120 -36 209 -8 104 34 141 68 156 145 6 35 10 533 10 1407 0
939 3 1354 10 1354 24 0 69 -31 88 -62 35 -55 54 -81 102 -138 25 -30 55 -68
65 -84 11 -16 27 -39 35 -51 8 -13 40 -53 71 -91 31 -38 71 -90 90 -116 19
-26 61 -82 94 -125 33 -42 65 -90 72 -105 7 -16 16 -28 21 -28 10 0 96 -104
142 -174 41 -60 91 -111 130 -131 65 -34 223 -36 300 -4 35 14 89 89 106 146
12 38 12 58 4 98 -6 28 -13 57 -14 66 -7 34 12 43 98 50 71 6 90 11 115 32 17
14 34 27 39 29 9 3 98 111 152 183 19 26 44 58 55 71 11 12 34 38 50 57 17 20
41 52 55 72 14 20 50 67 80 106 30 38 84 105 119 149 34 44 67 80 72 80 5 0
14 -12 19 -26 6 -16 10 -529 10 -1395 l0 -1371 38 -46 c48 -61 56 -67 127 -93
82 -30 136 -29 219 5 65 26 103 58 133 110 10 16 12 424 13 1804 l0 1782 -55
0 -55 0 0 -1757 1 -1758 -36 -33 c-35 -32 -37 -33 -122 -30 l-86 3 -31 38 -31
39 -5 1531 c-5 1399 -6 1532 -21 1535 -11 2 -42 -31 -90 -94 -73 -97 -100
-131 -129 -163 -8 -9 -40 -50 -71 -91 -31 -41 -94 -121 -140 -177 -46 -56 -97
-121 -114 -143 -16 -23 -40 -53 -53 -68 -12 -15 -50 -61 -83 -102 -90 -113
-108 -129 -165 -147 -59 -18 -108 -10 -171 29 -30 18 -33 24 -33 66 0 49 15
77 100 183 25 31 70 89 100 129 30 39 66 85 80 101 14 16 39 47 55 69 31 41
135 173 158 200 7 8 33 42 57 75 25 33 76 99 115 147 38 48 86 108 105 133 39
52 48 63 124 155 94 116 96 130 19 130 -50 0 -60 -3 -73 -24 -34 -53 -192
-257 -225 -289 -19 -19 -35 -37 -35 -40 0 -10 -116 -161 -140 -182 -11 -10
-20 -22 -20 -27 0 -5 -24 -39 -52 -74 -152 -187 -206 -257 -241 -306 -20 -29
-56 -73 -80 -98 -23 -25 -49 -55 -57 -67 -8 -12 -37 -53 -63 -92 -28 -41 -56
-71 -65 -71 -10 0 -33 20 -52 45 -19 25 -45 59 -57 74 -13 16 -23 33 -23 39 0
6 -18 30 -41 54 -23 23 -74 88 -115 143 -40 55 -82 110 -92 122 -10 12 -43 56
-73 98 -30 42 -79 107 -109 144 -30 38 -66 86 -80 106 -14 20 -47 64 -75 99
-27 35 -63 82 -80 105 -16 23 -56 74 -88 114 -32 40 -61 84 -64 100 -5 26 -7
27 -74 27 -76 0 -85 -9 -49 -52 34 -40 84 -106 110 -143 14 -20 35 -49 47 -63
38 -46 87 -109 113 -147 14 -20 50 -67 80 -105 30 -38 66 -85 80 -105 14 -20
50 -67 80 -105 30 -38 66 -85 80 -105 14 -20 50 -67 80 -105 30 -38 66 -85 80
-105 26 -38 80 -110 102 -135 7 -9 42 -55 78 -103 36 -48 88 -116 115 -151 28
-35 64 -82 80 -105 17 -23 41 -56 54 -73 27 -33 40 -113 23 -144 -16 -30 -93
-64 -143 -64 -66 0 -136 45 -190 120 -24 34 -55 75 -69 90 -14 16 -50 63 -80
105 -30 42 -66 89 -80 105 -14 16 -50 63 -80 105 -30 42 -77 104 -105 139 -27
35 -63 82 -80 105 -16 24 -42 57 -56 74 -32 40 -126 164 -159 213 -14 20 -35
48 -47 62 -40 48 -87 110 -113 147 -47 69 -109 131 -114 115 -3 -8 -7 -706 -8
-1550 -3 -1662 0 -1564 -55 -1589 -13 -6 -60 -11 -103 -11 -91 0 -111 12 -129
77 -8 26 -11 582 -11 1771 l0 1732 -70 0 -70 0 0 -1770z"></path>
<path d="M3160 8034 c-64 -38 -107 -81 -114 -116 -3 -16 -15 -41 -26 -55 -11
-14 -22 -41 -26 -62 -4 -20 -17 -57 -30 -83 -13 -26 -24 -56 -24 -66 0 -10
-11 -33 -25 -52 -14 -19 -25 -46 -25 -61 0 -14 -13 -51 -30 -82 -16 -31 -30
-67 -30 -80 0 -13 -11 -36 -25 -51 -16 -17 -25 -39 -25 -60 0 -18 -11 -53 -24
-78 -13 -25 -27 -60 -31 -79 -4 -19 -15 -47 -25 -64 -10 -16 -24 -50 -30 -75
-7 -24 -20 -55 -31 -68 -10 -14 -19 -34 -19 -46 0 -12 -9 -40 -20 -61 -11 -22
-27 -60 -34 -85 -8 -25 -23 -61 -35 -80 -11 -19 -21 -46 -21 -59 0 -13 -9 -38
-19 -55 -11 -17 -25 -51 -31 -76 -7 -25 -20 -56 -30 -70 -10 -14 -21 -40 -25
-59 -4 -19 -18 -54 -31 -79 -13 -25 -24 -54 -24 -66 0 -12 -12 -39 -25 -61
-14 -22 -25 -49 -25 -60 0 -11 -11 -41 -24 -66 -13 -25 -27 -61 -31 -81 -4
-20 -18 -51 -31 -69 -13 -18 -24 -45 -24 -59 0 -15 -11 -47 -23 -71 -13 -24
-27 -60 -31 -80 -3 -20 -15 -44 -25 -54 -11 -9 -23 -36 -26 -58 -4 -23 -18
-63 -31 -89 -13 -26 -24 -56 -24 -66 0 -10 -11 -33 -25 -52 -14 -19 -25 -47
-25 -62 0 -16 -14 -54 -30 -85 -17 -31 -30 -66 -30 -79 0 -13 -9 -32 -20 -42
-11 -10 -24 -39 -29 -65 -4 -25 -15 -57 -24 -70 -8 -13 -21 -43 -27 -68 -7
-24 -20 -54 -30 -66 -10 -13 -22 -43 -25 -66 -4 -23 -16 -54 -26 -68 -10 -14
-23 -48 -29 -75 -6 -27 -17 -58 -25 -70 -7 -11 -23 -56 -34 -100 -21 -74 -21
-83 -7 -143 16 -70 36 -96 106 -141 44 -29 52 -30 154 -30 l107 0 53 40 c42
32 61 56 88 113 19 40 38 85 42 101 4 15 15 40 26 55 10 14 21 42 24 61 3 19
17 57 31 84 14 27 25 57 25 66 0 9 11 31 25 50 14 19 25 46 25 60 0 15 11 47
24 72 13 25 27 60 31 79 4 19 15 43 25 54 10 11 21 38 25 60 4 22 16 55 26 73
11 19 24 55 30 80 5 26 19 55 30 65 10 10 19 30 19 45 0 15 14 54 30 87 16 33
30 70 30 82 0 12 11 34 25 49 15 16 25 39 25 57 0 17 11 49 24 71 13 23 27 59
30 81 4 22 16 54 26 70 10 17 24 50 30 75 7 24 20 55 31 68 10 14 19 34 19 46
0 12 9 40 20 61 11 22 27 61 34 87 8 25 22 58 31 72 9 14 21 40 25 58 11 42
55 152 79 198 10 19 22 51 26 70 4 19 15 49 26 65 10 17 23 52 29 79 6 27 20
60 30 74 11 13 20 34 20 46 0 11 14 48 30 81 17 33 30 65 30 73 0 7 11 34 25
60 14 26 25 54 25 64 0 53 31 64 55 18 9 -16 20 -30 25 -30 5 0 14 -19 21 -42
6 -24 22 -63 35 -88 13 -25 24 -56 24 -70 0 -15 11 -41 25 -60 14 -19 25 -42
25 -52 0 -10 11 -40 24 -66 13 -27 27 -66 31 -88 4 -21 15 -51 25 -65 10 -14
24 -46 30 -70 7 -24 20 -57 30 -74 10 -16 20 -46 24 -66 4 -21 15 -48 25 -60
10 -13 23 -45 30 -71 6 -27 20 -63 31 -80 11 -18 20 -42 20 -53 0 -11 14 -47
30 -80 17 -33 30 -65 30 -73 0 -7 11 -34 25 -60 14 -26 25 -55 25 -65 0 -11
11 -40 24 -66 32 -61 66 -147 77 -194 5 -22 21 -60 34 -85 14 -26 25 -58 25
-72 0 -15 11 -41 25 -60 14 -19 25 -43 25 -54 0 -12 14 -48 30 -81 17 -33 30
-71 30 -86 0 -14 9 -34 20 -44 11 -10 23 -34 26 -54 4 -20 17 -56 30 -81 13
-25 24 -56 24 -70 0 -15 11 -41 25 -60 14 -19 25 -41 25 -50 0 -9 11 -39 25
-66 14 -27 28 -67 32 -89 3 -22 17 -53 30 -68 12 -16 23 -40 23 -54 0 -28 57
-152 96 -210 15 -22 46 -47 81 -65 50 -25 66 -28 153 -28 73 0 101 4 110 14 6
8 26 20 45 26 47 16 96 97 103 172 4 48 1 66 -21 110 -15 29 -33 71 -41 93
-38 106 -65 173 -80 200 -9 17 -16 44 -16 62 0 18 -10 43 -24 60 -13 15 -26
46 -30 68 -4 21 -17 52 -28 68 -11 15 -22 47 -26 70 -3 23 -16 55 -28 70 -13
16 -24 39 -24 51 0 13 -11 43 -24 68 -13 25 -27 63 -31 86 -3 22 -15 51 -26
63 -11 13 -22 34 -25 48 -3 14 -16 49 -30 77 -13 28 -24 62 -24 76 0 14 -10
41 -23 60 -13 18 -29 54 -35 78 -6 25 -20 63 -32 85 -11 21 -20 49 -20 61 0
12 -9 32 -19 46 -11 13 -24 44 -31 68 -6 25 -20 59 -30 77 -11 18 -22 48 -26
68 -3 19 -14 45 -24 58 -9 12 -22 45 -29 72 -7 28 -21 64 -32 81 -10 17 -19
40 -19 51 0 11 -11 40 -23 64 -13 24 -30 62 -37 84 -7 22 -21 56 -31 75 -11
19 -19 43 -19 54 0 11 -11 38 -24 60 -13 23 -26 62 -30 87 -4 26 -15 54 -25
64 -11 9 -22 33 -26 53 -4 20 -18 57 -31 84 -13 26 -24 58 -24 71 0 13 -11 38
-25 57 -14 19 -25 43 -25 55 0 11 -11 41 -24 66 -13 25 -28 63 -31 84 -4 22
-15 49 -25 60 -10 11 -25 34 -34 52 -9 18 -26 38 -39 44 -12 6 -32 21 -45 32
-14 14 -43 23 -83 28 -87 10 -96 22 -64 90 13 30 25 61 25 70 0 9 10 29 22 44
15 19 23 46 26 85 4 48 1 60 -20 85 -14 17 -31 43 -39 60 -8 17 -30 37 -50 47
-19 9 -41 23 -48 32 -11 13 -34 16 -115 16 -91 0 -105 -3 -146 -26z m244 -103
c44 -41 51 -73 31 -144 -9 -34 -28 -85 -41 -113 -13 -28 -24 -56 -24 -63 0 -6
-11 -34 -25 -61 -14 -27 -25 -55 -25 -63 0 -7 -11 -36 -25 -62 -13 -27 -27
-62 -31 -79 -3 -16 -17 -49 -30 -74 -13 -25 -24 -52 -24 -61 0 -9 -7 -29 -16
-46 -9 -16 -27 -58 -40 -92 -13 -35 -35 -91 -48 -125 -13 -35 -31 -76 -40 -93
-9 -16 -16 -39 -16 -50 0 -11 -9 -34 -19 -52 -11 -17 -25 -51 -31 -75 -7 -24
-20 -56 -30 -73 -10 -16 -21 -45 -25 -64 -4 -19 -18 -54 -31 -79 -13 -25 -24
-52 -24 -61 0 -9 -7 -29 -16 -46 -9 -16 -27 -58 -40 -92 -13 -35 -35 -91 -48
-125 -13 -35 -31 -76 -40 -93 -9 -16 -16 -37 -16 -46 0 -9 -11 -36 -24 -61
-13 -25 -27 -60 -31 -78 -4 -18 -18 -53 -31 -78 -13 -25 -24 -52 -24 -61 0 -9
-7 -29 -16 -46 -16 -30 -47 -108 -85 -214 -11 -30 -25 -64 -33 -76 -7 -11 -17
-36 -21 -54 -4 -19 -18 -54 -31 -79 -13 -25 -24 -53 -24 -62 0 -9 -11 -38 -25
-64 -14 -26 -25 -53 -25 -60 0 -7 -11 -35 -25 -61 -13 -27 -27 -63 -31 -79 -3
-17 -17 -52 -30 -78 -13 -26 -24 -54 -24 -61 0 -8 -11 -34 -24 -59 -13 -25
-27 -60 -31 -78 -4 -18 -18 -53 -31 -78 -13 -25 -24 -52 -24 -61 0 -9 -11 -36
-24 -61 -13 -25 -27 -60 -31 -78 -4 -18 -21 -59 -39 -90 -31 -56 -33 -57 -87
-66 -68 -11 -164 0 -184 20 -23 24 -20 150 4 191 11 17 25 51 31 75 7 24 20
57 30 73 10 17 21 46 25 65 4 19 18 55 31 80 13 25 24 52 24 60 0 8 11 36 25
62 14 26 25 55 25 65 0 10 14 45 30 78 16 33 30 67 30 75 0 8 7 29 16 45 16
31 52 120 84 212 10 28 25 62 33 75 8 12 18 38 22 57 4 19 18 54 31 79 13 25
24 52 24 61 0 9 11 36 24 61 13 25 27 59 30 76 4 16 18 52 31 79 14 26 25 55
25 62 0 8 11 35 25 61 14 26 25 54 25 62 0 8 11 38 25 65 13 28 25 57 25 65 0
8 14 42 30 75 16 33 30 67 30 75 0 8 12 38 25 65 14 28 25 57 25 65 0 8 7 29
16 45 9 17 27 58 40 93 13 34 35 90 48 125 13 34 31 76 40 92 9 17 16 37 16
46 0 9 11 36 24 61 13 25 27 60 31 78 4 18 18 53 31 78 13 25 24 54 24 66 0
12 12 39 25 61 14 22 25 49 25 60 0 12 9 39 20 60 12 22 29 63 39 90 49 131
70 182 85 210 9 17 16 37 16 46 0 9 11 36 24 61 13 25 27 60 31 78 4 18 18 53
31 78 13 25 24 51 24 58 0 7 19 26 43 44 39 30 46 31 114 28 59 -3 76 -8 97
-27z m185 -514 c38 -19 80 -78 106 -150 14 -37 36 -96 49 -133 14 -36 29 -70
34 -77 5 -7 13 -28 17 -47 4 -19 18 -55 31 -80 13 -25 24 -52 24 -61 0 -9 11
-36 24 -61 13 -25 27 -60 31 -78 4 -18 18 -53 31 -78 13 -25 24 -52 24 -61 0
-9 9 -32 19 -52 11 -19 25 -55 32 -80 7 -24 19 -53 26 -65 7 -11 21 -45 32
-75 38 -108 68 -186 76 -199 7 -12 28 -67 76 -199 11 -29 26 -63 34 -75 7 -11
19 -41 25 -66 7 -25 20 -58 30 -75 10 -16 21 -44 24 -61 4 -16 18 -52 31 -79
14 -26 25 -56 25 -64 0 -9 12 -38 25 -66 14 -27 25 -56 25 -63 0 -7 11 -35 25
-62 14 -27 25 -56 25 -63 0 -8 11 -34 24 -59 13 -25 27 -60 31 -79 4 -19 18
-54 31 -79 13 -25 24 -53 24 -64 0 -11 11 -38 24 -60 13 -23 27 -56 31 -75 4
-19 18 -54 31 -79 13 -25 24 -52 24 -61 0 -9 7 -29 16 -46 18 -33 36 -81 89
-233 l35 -103 -19 -44 c-18 -40 -23 -44 -66 -51 -26 -3 -74 -4 -107 -1 -69 6
-101 29 -119 86 -6 20 -19 50 -29 66 -10 17 -21 45 -25 64 -4 19 -18 54 -31
79 -13 25 -24 52 -24 61 0 9 -11 36 -24 61 -13 25 -27 61 -31 80 -4 19 -14 44
-21 55 -8 12 -22 46 -33 76 -36 101 -72 193 -81 204 -4 5 -15 33 -23 62 -9 28
-22 62 -30 75 -8 12 -18 38 -22 57 -4 19 -18 54 -31 79 -13 25 -24 53 -24 62
0 9 -11 37 -24 62 -13 25 -27 58 -30 74 -4 17 -18 52 -31 79 -14 26 -25 55
-25 63 0 8 -9 31 -20 51 -11 20 -29 62 -40 94 -40 113 -59 163 -80 202 -11 21
-20 48 -20 60 0 11 -9 34 -19 52 -11 17 -25 51 -31 75 -7 24 -20 57 -30 73
-10 17 -21 45 -25 64 -4 19 -18 54 -31 79 -13 25 -24 51 -24 59 0 7 -11 36
-25 63 -14 27 -25 55 -25 62 0 7 -11 36 -25 63 -13 28 -25 57 -25 65 0 8 -14
42 -30 75 -16 33 -30 69 -30 80 0 11 -9 34 -19 52 -11 17 -25 51 -31 75 -7 24
-20 57 -30 73 -10 17 -21 46 -25 65 -4 19 -16 50 -27 68 -11 18 -22 59 -25 92
-6 58 -5 60 30 95 33 33 38 35 104 35 37 0 79 -6 92 -13z"></path>
<path d="M3955 3974 c-68 -36 -103 -71 -115 -114 -5 -20 -16 -44 -24 -55 -14
-18 -15 -240 -16 -1803 l0 -1782 35 -71 c25 -50 46 -76 70 -91 21 -11 35 -28
35 -39 0 -18 9 -19 145 -19 138 0 145 1 145 20 0 13 13 26 38 38 36 19 38 19
80 1 26 -11 46 -27 49 -39 5 -20 14 -20 474 -20 401 0 470 2 475 15 7 17 49
31 119 41 28 3 76 17 107 30 32 13 68 24 80 24 13 0 46 11 73 25 28 13 57 25
65 25 9 0 32 11 52 25 20 14 41 25 46 25 5 0 26 11 46 25 20 14 47 27 60 31
13 3 34 17 47 30 12 13 28 24 34 24 51 0 381 308 469 438 16 24 35 46 42 50
18 10 94 127 94 144 0 9 9 26 19 40 36 45 132 243 143 293 6 28 18 66 28 85
10 19 20 56 24 81 4 25 15 61 25 80 14 27 21 75 30 207 13 185 15 198 37 206
20 8 20 106 0 106 -22 0 -26 21 -38 214 -9 145 -15 186 -29 204 -10 13 -21 49
-25 80 -4 31 -17 76 -30 101 -13 24 -24 58 -24 75 0 17 -9 47 -20 66 -11 19
-27 49 -35 67 -8 17 -19 34 -24 37 -5 4 -15 23 -22 44 -7 20 -23 51 -36 68
-12 17 -23 37 -23 46 0 8 -27 50 -60 94 -34 43 -69 90 -78 103 -48 68 -159
184 -238 250 -49 41 -98 84 -109 96 -26 28 -80 67 -130 94 -22 12 -67 38 -100
56 -33 19 -71 39 -85 45 -14 6 -34 20 -46 31 -12 11 -39 23 -60 26 -21 4 -59
17 -83 30 -24 13 -61 23 -81 23 -20 0 -58 11 -84 25 -26 14 -59 25 -74 25 -15
0 -65 10 -112 21 -77 19 -124 22 -487 26 l-402 5 -33 -24 c-18 -14 -52 -33
-76 -43 -38 -16 -44 -16 -60 -3 -9 8 -38 27 -63 42 -40 22 -57 26 -130 26 -71
0 -92 -4 -134 -26z m1305 -94 c36 -11 99 -23 140 -27 51 -3 88 -13 115 -28 22
-12 62 -25 89 -29 27 -3 63 -15 81 -26 18 -11 39 -20 47 -20 16 0 135 -61 178
-90 14 -10 36 -21 50 -25 14 -4 38 -18 53 -31 16 -13 33 -24 39 -24 10 0 27
-14 92 -75 11 -12 60 -54 109 -94 48 -41 97 -88 110 -105 12 -17 29 -39 37
-48 8 -10 25 -30 37 -45 12 -16 35 -44 51 -63 59 -73 76 -100 162 -268 24 -48
52 -98 61 -112 9 -14 20 -45 24 -70 4 -25 15 -64 26 -88 10 -23 23 -67 28 -97
6 -30 18 -69 27 -87 16 -31 36 -264 36 -418 1 -142 -20 -377 -35 -407 -9 -17
-23 -62 -31 -101 -8 -39 -21 -83 -29 -99 -8 -15 -17 -48 -21 -73 -4 -25 -14
-56 -24 -70 -15 -23 -82 -149 -132 -245 -11 -22 -35 -59 -52 -82 -18 -23 -59
-76 -91 -117 -32 -42 -77 -95 -100 -118 -79 -80 -282 -250 -331 -276 -26 -15
-69 -39 -95 -54 -25 -15 -62 -35 -81 -44 -19 -9 -45 -24 -58 -35 -13 -10 -44
-21 -70 -25 -26 -3 -63 -15 -82 -26 -19 -11 -60 -24 -92 -29 -32 -5 -72 -18
-90 -28 -27 -16 -62 -20 -203 -25 -93 -4 -197 -13 -230 -21 -93 -23 -358 -20
-476 5 -71 15 -98 25 -111 42 -29 37 -32 65 -11 100 28 50 127 80 253 79 52
-1 219 4 370 10 258 11 278 13 320 35 25 13 58 24 75 24 17 0 48 10 70 21 22
12 57 28 79 36 22 7 47 20 56 27 8 7 30 18 48 24 19 6 46 22 62 34 16 13 45
34 65 48 21 14 50 36 66 50 15 14 60 50 100 80 91 70 154 138 249 275 14 19
49 67 78 105 28 39 52 73 52 77 0 5 13 35 29 68 63 132 79 172 86 210 4 21 15
55 25 75 10 19 21 64 24 100 4 36 13 99 21 140 23 126 26 227 10 345 -8 61
-19 148 -25 195 -6 47 -19 103 -30 125 -10 22 -22 58 -25 80 -4 22 -17 63 -30
90 -60 131 -98 204 -130 250 -20 28 -43 61 -53 75 -9 14 -40 57 -69 95 -29 39
-63 84 -76 102 -22 29 -107 103 -212 183 -51 39 -73 56 -126 100 -20 17 -44
30 -52 30 -9 0 -28 11 -44 24 -15 13 -45 28 -65 35 -20 7 -42 18 -48 26 -6 8
-33 17 -58 21 -26 4 -65 17 -88 30 -29 17 -56 24 -95 24 -35 0 -70 8 -99 23
-43 21 -59 22 -404 27 l-358 5 -34 40 c-44 52 -44 83 1 132 46 50 71 53 460
48 281 -4 317 -6 375 -25z m-1067 -14 l37 -34 -2 -1821 c-3 -1732 -4 -1821
-21 -1838 -14 -14 -38 -19 -113 -21 -118 -5 -137 5 -153 78 -13 61 -15 3486
-2 3565 7 38 16 55 42 77 29 25 41 28 104 28 67 0 73 -2 108 -34z m266 -306
c39 -18 66 -20 265 -20 339 -1 522 -13 578 -37 25 -12 65 -24 88 -28 24 -4 63
-18 88 -31 25 -13 53 -24 62 -24 10 0 28 -8 41 -18 13 -10 49 -30 79 -45 31
-14 73 -41 95 -59 22 -19 53 -40 69 -48 50 -25 217 -191 277 -275 32 -44 68
-92 79 -108 12 -15 55 -95 97 -178 59 -119 77 -165 83 -216 5 -38 16 -73 26
-84 26 -29 37 -201 31 -492 -5 -223 -7 -251 -26 -290 -11 -23 -25 -66 -31 -95
-5 -28 -16 -62 -24 -74 -7 -13 -19 -41 -26 -63 -7 -22 -16 -44 -20 -50 -4 -5
-27 -46 -50 -90 -22 -44 -51 -91 -64 -105 -12 -14 -29 -41 -38 -60 -33 -74
-298 -327 -399 -380 -13 -7 -30 -19 -37 -26 -7 -8 -31 -18 -53 -24 -22 -6 -43
-18 -46 -25 -3 -8 -24 -20 -46 -26 -23 -6 -53 -19 -67 -29 -14 -10 -51 -23
-83 -30 -32 -6 -79 -21 -105 -33 -44 -19 -70 -21 -412 -26 -272 -5 -371 -10
-388 -19 -13 -7 -49 -17 -80 -23 -49 -8 -59 -7 -69 8 -17 22 -19 3093 -3 3124
14 25 52 24 109 -1z"></path>
</g>
</svg>