 <svg version="1.0" xmlns="http://www.w3.org/2000/svg" width="700.000000pt" height="700.000000pt" viewBox="0 0 700.000000 700.000000" preserveAspectRatio="xMidYMid meet">
<metadata>
Created by potrace 1.12, written by Peter Selinger 2001-2015
</metadata>
<g transform="translate(0.000000,700.000000) scale(0.100000,-0.100000)" fill="#000000" stroke="none">
<path d="M0 3500 l0 -3500 3500 0 3500 0 0 3500 0 3500 -3500 0 -3500 0 0
-3500z m1875 2599 c20 -34 20 -51 23 -2419 1 -1648 -1 -2401 -8 -2436 -6 -28
-17 -59 -24 -69 -17 -23 -49 -13 -64 21 -9 18 -12 572 -13 2162 0 1175 -4
2157 -8 2182 -4 25 -10 38 -13 30 -3 -8 -21 -64 -41 -125 -19 -60 -45 -137
-56 -170 -38 -108 -247 -745 -305 -930 -71 -223 -85 -262 -102 -276 -22 -18
-52 7 -65 54 -19 70 8 188 121 527 21 63 71 216 110 340 39 124 85 261 100
305 16 44 37 107 46 140 9 33 33 107 54 165 21 58 63 186 95 284 55 173 96
261 119 253 6 -2 20 -19 31 -38z m-1487 4 c11 -16 30 -62 41 -103 12 -41 37
-122 55 -180 55 -174 146 -457 186 -585 21 -66 60 -190 85 -275 46 -150 76
-248 163 -525 22 -71 43 -141 47 -155 7 -27 60 -200 121 -394 47 -151 55 -241
25 -308 -11 -27 -25 -48 -30 -48 -16 0 -50 64 -71 136 -11 38 -38 128 -60 199
-21 72 -59 195 -83 275 -76 250 -138 450 -187 605 -26 83 -66 211 -90 285 -23
74 -61 196 -85 270 -24 74 -49 154 -55 178 -34 131 -35 78 -40 -2114 -3 -1182
-9 -2157 -14 -2167 -4 -10 -18 -23 -29 -29 -31 -16 -54 19 -62 95 -3 34 -5
1133 -3 2442 2 1916 6 2384 16 2403 17 30 46 28 70 -5z m5093 11 c24 -9 73
-20 109 -24 54 -7 69 -14 90 -38 14 -17 35 -33 47 -36 11 -4 29 -18 38 -32 9
-14 26 -29 39 -34 13 -5 51 -46 84 -92 34 -46 72 -96 84 -112 13 -17 56 -95
96 -175 272 -541 406 -1426 353 -2331 -7 -113 -17 -241 -23 -285 -5 -44 -14
-118 -18 -165 -10 -95 -21 -161 -50 -300 -11 -52 -29 -140 -41 -194 -11 -55
-31 -131 -45 -170 -14 -39 -36 -108 -50 -153 -24 -80 -87 -238 -104 -258 -4
-5 -29 -50 -54 -100 -26 -49 -62 -110 -81 -135 -19 -25 -54 -73 -77 -107 -22
-35 -45 -63 -49 -63 -7 0 -51 -34 -142 -111 -32 -27 -49 -33 -110 -39 -40 -4
-83 -13 -97 -20 -28 -15 -271 -16 -299 0 -30 16 -44 65 -38 131 9 107 6 105
219 112 170 5 248 17 248 38 0 4 20 17 45 28 25 11 45 25 45 31 0 5 14 19 31
29 16 10 50 43 75 72 24 30 53 63 63 74 10 11 24 31 31 45 7 14 28 48 46 76
41 61 111 219 163 362 69 192 133 460 165 692 8 58 22 161 32 230 26 185 26
949 0 1130 -58 407 -76 501 -135 725 -116 433 -330 786 -545 900 -79 42 -179
57 -344 54 -119 -3 -132 7 -139 108 -6 78 11 127 50 143 39 16 240 12 288 -6z
m-2056 -35 c12 -36 6 -201 -9 -289 -38 -212 -59 -332 -71 -415 -25 -163 -35
-226 -44 -268 -5 -23 -17 -94 -26 -157 -10 -63 -23 -142 -31 -176 -8 -33 -14
-76 -14 -95 0 -19 -5 -52 -10 -74 -5 -22 -16 -89 -25 -150 -8 -60 -22 -144
-30 -185 -13 -66 -51 -306 -75 -470 -5 -30 -16 -100 -25 -155 -9 -55 -25 -158
-35 -230 -11 -71 -25 -154 -31 -185 -6 -30 -17 -95 -24 -145 -8 -49 -18 -117
-24 -150 -5 -33 -17 -107 -26 -165 -9 -58 -23 -143 -31 -190 -9 -47 -22 -125
-29 -175 -7 -49 -22 -144 -33 -210 -11 -66 -26 -154 -32 -195 -7 -41 -16 -97
-21 -125 -5 -27 -18 -108 -29 -180 -11 -71 -26 -168 -34 -215 -9 -47 -23 -130
-32 -185 -23 -136 -47 -171 -89 -129 -13 14 -16 36 -13 133 3 100 19 213 68
486 21 119 40 233 44 275 3 25 13 81 21 125 8 44 22 125 30 180 8 55 21 141
30 190 18 104 41 257 55 365 5 41 14 95 19 120 9 39 30 172 45 280 2 19 13 87
24 150 11 63 23 140 27 170 3 30 10 75 15 100 5 25 16 95 25 155 9 61 22 144
30 185 7 41 21 125 30 185 16 110 38 250 76 485 11 69 33 208 50 310 28 176
41 255 75 450 8 47 23 141 34 210 10 69 24 152 30 185 7 33 17 87 23 119 12
70 37 102 67 86 10 -5 22 -19 25 -31z m1548 -10 c16 -32 17 -165 15 -2454 -3
-2298 -4 -2422 -21 -2448 -23 -36 -43 -34 -63 5 -16 31 -17 204 -18 2453 0
2525 -1 2451 38 2477 18 12 30 4 49 -33z m-1425 -719 c8 -25 18 -67 22 -95 26
-159 61 -368 71 -420 6 -33 15 -87 20 -120 4 -33 15 -100 24 -150 9 -49 23
-130 30 -180 8 -49 21 -133 30 -185 8 -52 20 -120 25 -150 32 -194 62 -379 75
-465 9 -55 20 -125 25 -155 6 -30 19 -113 30 -185 11 -71 24 -155 30 -185 5
-30 17 -100 25 -155 9 -55 23 -138 31 -185 8 -47 24 -143 35 -215 11 -71 26
-170 35 -220 8 -49 19 -119 24 -155 6 -36 12 -71 15 -78 4 -12 25 -139 45
-277 5 -33 18 -114 30 -180 52 -295 55 -412 14 -442 -10 -7 -21 -13 -24 -13
-20 0 -42 46 -51 105 -5 37 -11 70 -13 74 -4 6 -41 223 -50 291 -2 19 -18 116
-35 215 -44 247 -60 349 -71 426 -5 37 -14 87 -19 110 -6 24 -24 134 -41 244
-17 110 -35 223 -41 250 -5 28 -21 120 -34 205 -14 85 -33 198 -41 250 -9 52
-19 120 -24 150 -4 30 -22 143 -40 250 -52 317 -60 371 -71 449 -5 41 -12 77
-14 80 -2 4 -13 67 -24 141 -12 74 -26 158 -31 185 -6 28 -14 82 -20 120 -9
71 -21 141 -60 360 -22 122 -32 320 -17 343 5 8 22 12 40 10 27 -3 33 -9 45
-48z m-1274 -3761 c28 -13 48 -63 66 -169 19 -108 -8 -244 -59 -299 -24 -25
-33 -29 -57 -22 -64 17 -100 128 -92 283 10 171 60 244 142 207z m2304 0 c41
-14 62 -80 69 -214 8 -153 -35 -275 -96 -275 -70 0 -106 99 -99 276 4 123 29
197 70 214 13 5 23 9 24 9 1 1 15 -4 32 -10z m2215 2 c79 -30 102 -340 33
-449 -22 -36 -31 -42 -60 -42 -66 0 -106 94 -106 249 1 117 30 218 70 238 30
15 32 15 63 4z"></path>
</g>
</svg>